# xmcd
#
# Track frame offsets:
#	150
#	33487
#	64174
#	95683
#	128306
#	154427
#
# Disc length: 2265 seconds
#
# Revision: 0
# Processed by: cddbd v1.5.2PL0 Copyright (c) Steve Scherf et al.
# Submitted via: EasyCDDAExtractor 2011.0.0.0
#
DISCID=4a08d706
DTITLE=Soulshaker vs. Sandy B. - Make The World Go Round
DYEAR=2010
DGENRE=House
TTITLE0=Make The World Go Round (Soulshaker Original Club Mix)
TTITLE1=Make The World Go Round (Stereojackers Remix)
TTITLE2=Make The World Go Round (JD Rox Remix)
TTITLE3=Make The World Go Round (Bassmonkeys Remix)
TTITLE4=Make The World Go Round (R1 Remix)
TTITLE5=Make The World Go Round (Soulshaker Original Radio Edit)
EXTD=
EXTT0=
EXTT1=
EXTT2=
EXTT3=
EXTT4=
EXTT5=
PLAYORDER=
